# xmcd
#
# Track frame offsets: 
#        150
#        15100
#        34490
#        55462
#        68947
#        85104
#        97195
#        116915
#        131625
#        146998
#        166613
#        184699
#
# Disc length: 2594 seconds
#
# Revision: 0
# Processed by: cddbd v1.5.2PL0 Copyright (c) Steve Scherf et al.
# Submitted via: ExactAudioCopy v1.3
#
DISCID=a90a200c
DTITLE=RnR Blues Co. - Bluesin' and Groovin'
DYEAR=2019
DGENRE=Blues
TTITLE0=Midnight Blue
TTITLE1=Blues In The Evening
TTITLE2=Got The Same Old Blues
TTITLE3=Goin' Back Home
TTITLE4=Hard Road Back
TTITLE5=Walkin' On Hallowed Ground
TTITLE6=You And We
TTITLE7=The Mexican Lottery
TTITLE8=Ridin' High
TTITLE9=Coffee
TTITLE10=I'm In The Groove
TTITLE11=Blues Rock
EXTD=
EXTT0=
EXTT1=
EXTT2=
EXTT3=
EXTT4=
EXTT5=
EXTT6=
EXTT7=
EXTT8=
EXTT9=
EXTT10=
EXTT11=
PLAYORDER=
